<?xml version="1.0" encoding="UTF-8"?>
<svg width="128px" height="45px" viewBox="0 0 128 45" version="1.1" xmlns="http://www.w3.org/2000/svg" xmlns:xlink="http://www.w3.org/1999/xlink">
    <title>F73AC965-39EB-45E5-850B-F508CDF348CC</title>
    <g id="Dashboard" stroke="none" stroke-width="1" fill="none" fill-rule="evenodd">
        <g id="Dashboard-1A" transform="translate(-30.000000, -18.000000)" fill-rule="nonzero">
            <g id="CenterPoint_Logo_horizontal_CMYK" transform="translate(30.000000, 18.000000)">
                <g id="Group" transform="translate(16.417391, 15.860870)">
                    <path d="M6.47290438,13.0821566 C2.77120001,13.0821566 0.0219826088,10.2252522 0.0219826088,6.61370438 L0.0219826088,6.57753046 C0.0219826088,3.00160001 2.71749566,0.0729043481 6.58059133,0.0729043481 C8.95220873,0.0729043481 10.3718957,0.863721743 11.5397566,2.01377392 L9.77892178,4.0442435 C8.80862612,3.1638261 7.82024351,2.62455653 6.56250438,2.62455653 C4.44215654,2.62455653 2.91478262,4.38539132 2.91478262,6.54163481 L2.91478262,6.57753046 C2.91478262,8.73377395 4.40626089,10.5307827 6.56250438,10.5307827 C8.00000003,10.5307827 8.88069569,9.95589569 9.86880004,9.05711308 L11.6299131,10.8363131 C10.3362783,12.2195479 8.89850439,13.0821566 6.47290438,13.0821566 Z" id="Path" fill="#000000"></path>
                    <path d="M22.320974,9.00313047 L15.6185044,9.00313047 C15.8881392,10.2430609 16.7504696,10.8897392 17.9723131,10.8897392 C18.8886262,10.8897392 19.5536696,10.6022957 20.3083131,9.90135656 L21.8715827,11.2851479 C20.9730784,12.3993044 19.6794436,13.0818783 17.9364175,13.0818783 C15.0436175,13.0818783 12.9051827,11.0514087 12.9051827,8.10462612 L12.9051827,8.06873047 C12.9051827,5.31923481 14.8638609,3.05530436 17.6670609,3.05530436 C20.8834783,3.05530436 22.3568697,5.55297394 22.3568697,8.28410438 L22.3568697,8.32000004 C22.3568697,8.58991308 22.3387827,8.75158265 22.320974,9.00313047 Z M17.6670609,5.24772176 C16.5350957,5.24772176 15.7982609,6.05634785 15.5826088,7.29600003 L19.6975305,7.29600003 C19.535861,6.07443481 18.8171131,5.24772176 17.6670609,5.24772176 Z" id="Shape" fill="#000000"></path>
                    <path d="M30.4784697,12.8665044 L30.4784697,7.49412177 C30.4784697,6.20048698 29.8674088,5.5354435 28.8253219,5.5354435 C27.7829566,5.5354435 27.1181914,6.20048698 27.1181914,7.49412177 L27.1181914,12.8667827 L24.387061,12.8667827 L24.387061,3.23533914 L27.1181914,3.23533914 L27.1181914,4.6010435 C27.747061,3.79241741 28.5556871,3.05558262 29.9392001,3.05558262 C32.0055654,3.05558262 33.2096001,4.42100871 33.2096001,6.63151307 L33.2096001,12.8665044 L30.4784697,12.8665044 L30.4784697,12.8665044 Z" id="Path" fill="#000000"></path>
                    <path d="M38.8335306,13.028174 C37.1625741,13.028174 36.0303306,12.3634087 36.0303306,10.135374 L36.0303306,5.57106089 L34.8802784,5.57106089 L34.8802784,3.23506088 L36.0303306,3.23506088 L36.0303306,0.773565221 L38.761461,0.773565221 L38.761461,3.23533914 L41.0256697,3.23533914 L41.0256697,5.57133915 L38.761461,5.57133915 L38.761461,9.68626091 C38.761461,10.3151305 39.0310958,10.6203827 39.6421567,10.6203827 C40.1452523,10.6203827 40.5943654,10.4946087 40.9897741,10.2789566 L40.9897741,12.4710957 C40.4146089,12.8128001 39.7498436,13.028174 38.8335306,13.028174 Z" id="Path" fill="#000000"></path>
                    <path d="M51.7145046,9.00313047 L45.012035,9.00313047 C45.2816698,10.2430609 46.1440002,10.8897392 47.3658437,10.8897392 C48.282435,10.8897392 48.9474785,10.6022957 49.702122,9.90135656 L51.2653915,11.2851479 C50.3668872,12.3993044 49.0729741,13.0818783 47.329948,13.0818783 C44.437148,13.0818783 42.2987132,11.0514087 42.2987132,8.10462612 L42.2987132,8.06873047 C42.2987132,5.31923481 44.2573915,3.05530436 47.0603132,3.05530436 C50.2770089,3.05530436 51.7501251,5.55297394 51.7501251,8.28410438 L51.7501251,8.32000004 C51.7504002,8.58991308 51.7323133,8.75158265 51.7145046,9.00313047 Z M47.0603132,5.24772176 C45.928348,5.24772176 45.1915132,6.05634785 44.9761393,7.29600003 L49.0907828,7.29600003 C48.9291133,6.07443481 48.2103654,5.24772176 47.0603132,5.24772176 Z" id="Shape" fill="#000000"></path>
                    <path d="M59.4406959,5.91276524 C57.6258785,5.91276524 56.5120002,7.00855655 56.5120002,9.30866091 L56.5120002,12.8665044 L53.7805915,12.8665044 L53.7805915,3.23533914 L56.5120002,3.23533914 L56.5120002,5.17620872 C57.0688002,3.84640002 57.9673046,2.98379132 59.5845568,3.05586088 L59.5845568,5.9130435 L59.4406959,5.9130435 L59.4406959,5.91276524 Z" id="Path" fill="#000000"></path>
                    <path d="M67.2211481,8.42824351 L64.166122,8.42824351 L64.166122,12.8665044 L62.746435,12.8665044 L62.746435,0.288556523 L67.4543307,0.288556523 C70.2934264,0.288556523 72.1622264,1.79784349 72.1622264,4.2952348 C72.1625047,7.02664351 69.8982959,8.42824351 67.2211481,8.42824351 Z M67.3466438,1.60027827 L64.166122,1.60027827 L64.166122,7.13460873 L67.2748525,7.13460873 C69.3590264,7.13460873 70.7247308,6.0204522 70.7247308,4.34949567 C70.725009,2.53440001 69.3771133,1.60027827 67.3466438,1.60027827 Z" id="Shape" fill="#0070B9"></path>
                    <path d="M78.6657395,13.0821566 C75.8806264,13.0821566 73.8501568,10.8900174 73.8501568,8.24876525 C73.8501568,5.60723481 75.8984351,3.37920001 78.7016351,3.37920001 C81.4870264,3.37920001 83.5353047,5.57133915 83.5353047,8.2128696 C83.5353047,10.8541218 81.4689395,13.0821566 78.6657395,13.0821566 Z M78.6657395,4.6010435 C76.6533568,4.6010435 75.2698438,6.20020872 75.2698438,8.21259134 C75.2698438,10.224974 76.7432351,11.8422261 78.7016351,11.8422261 C80.7140177,11.8422261 82.115896,10.2430609 82.115896,8.24848699 C82.115896,6.21829568 80.6244177,4.6010435 78.6657395,4.6010435 Z" id="Shape" fill="#0070B9"></path>
                    <path d="M86.0697047,1.54629566 L86.0697047,0.0192000001 L87.6510612,0.0192000001 L87.6510612,1.54629566 L86.0697047,1.54629566 Z M86.1598612,12.8665044 L86.1598612,3.57676523 L87.5433743,3.57676523 L87.5433743,12.8667827 L86.1598612,12.8667827 L86.1598612,12.8665044 Z" id="Shape" fill="#0070B9"></path>
                    <path d="M92.1433047,12.8665044 L90.7597917,12.8665044 L90.7597917,3.57676523 L92.1433047,3.57676523 L92.1433047,5.19401741 C92.7543656,4.1878261 93.7246613,3.37920001 95.3241048,3.37920001 C97.5699482,3.37920001 98.88167,4.88876524 98.88167,7.09871307 L98.88167,12.8667827 L97.4981569,12.8667827 L97.4981569,7.4398609 C97.4981569,5.71492176 96.5637569,4.63693915 94.9286961,4.63693915 C93.3295308,4.63693915 92.1433047,5.80480002 92.1433047,7.54782612 L92.1433047,12.8665044 L92.1433047,12.8665044 Z" id="Path" fill="#0070B9"></path>
                    <path d="M103.698366,10.2252522 C103.698366,11.3569392 104.327235,11.7704348 105.261635,11.7704348 C105.728835,11.7704348 106.124244,11.6808348 106.609253,11.4470957 L106.609253,12.6330435 C106.124244,12.8845914 105.603061,13.0284522 104.938018,13.0284522 C103.446818,13.0284522 102.314574,12.2918957 102.314574,10.4050087 L102.314574,4.79860872 L101.02094,4.79860872 L101.02094,3.57648697 L102.314574,3.57648697 L102.314574,0.773565221 L103.698366,0.773565221 L103.698366,3.57648697 L106.645148,3.57648697 L106.645148,4.79860872 L103.698366,4.79860872 L103.698366,10.2252522 Z" id="Path" fill="#0070B9"></path>
                </g>
                <g id="Group">
                    <g id="XMLID_117_" fill="#1F3E7C">
                        <path d="M25.6367305,44.4171132 C23.6129392,44.7078958 21.5641044,44.7181915 19.5458783,44.4482785 C19.3380175,44.4207306 19.1524175,44.3133219 19.0255305,44.1458089 C18.8972523,43.9788524 18.8421566,43.7723828 18.8705392,43.5636871 C18.9170088,43.2161393 19.1910957,42.9389915 19.5383653,42.888348 C19.6090436,42.8786089 19.6822262,42.8777741 19.7548523,42.8880697 C21.6300523,43.1387828 23.5328001,43.1293219 25.4118958,42.8591306 C29.7179827,42.2402784 33.6445219,40.3300176 36.7680002,37.3356523 C36.8870958,37.2204523 37.0370784,37.1478262 37.2004175,37.1244523 C37.4505741,37.0885567 37.705461,37.1756523 37.8799306,37.3581915 C38.1801741,37.6712349 38.1698784,38.1701567 37.8571132,38.4715132 C34.4951654,41.6954437 30.269774,43.7509567 25.6367305,44.4171132 Z" id="XMLID_129_"></path>
                        <path d="M14.8744348,43.4031306 C14.4267131,43.4671306 14.0101566,43.1552002 13.9456001,42.7077567 C13.8813218,42.2597567 14.1935305,41.8429219 14.640974,41.7786437 C15.0895305,41.7143654 15.5055305,42.0262958 15.5698088,42.4737393 C15.6346435,42.9217393 15.3229914,43.3382958 14.8744348,43.4031306 Z" id="XMLID_128_"></path>
                        <path d="M17.0882783,2.61787827 C16.5053218,2.85078262 15.8962088,2.39443479 15.9571479,1.7700174 C15.984974,1.4756174 16.183374,1.20960001 16.4582957,1.09968696 C17.040974,0.866226091 17.6503653,1.32368696 17.5902609,1.94810436 C17.5616001,2.2422261 17.3623653,2.50824349 17.0882783,2.61787827 Z" id="XMLID_127_"></path>
                        <path d="M12.4811131,42.0891828 C12.3202783,42.1125567 12.1594435,42.0836176 12.0144696,42.0082089 L11.9738435,41.9865045 C6.00681742,38.7798263 1.88076523,33.1058088 0.658921742,26.4225392 C0.581286959,25.9959653 0.865669569,25.584974 1.29168696,25.5076175 L1.29335653,25.5067827 C1.7380174,25.443061 2.13203479,25.7291132 2.20772175,26.1398262 C3.34191306,32.3494958 7.17801742,37.6228176 12.7309914,40.6074437 C13.1169392,40.814748 13.266087,41.2933567 13.0640696,41.6745741 C12.9452522,41.8982958 12.7279305,42.0538437 12.4811131,42.0891828 Z" id="XMLID_123_"></path>
                        <path d="M1.53627827,19.4156523 C1.45280001,19.4278957 1.3682087,19.4262262 1.28417392,19.4114783 C0.85648696,19.3346783 0.572382611,18.923687 0.649739133,18.4971131 C1.06351305,16.210087 1.83624349,14.0034783 2.94650436,11.9382261 C5.01398263,8.09210438 8.13161743,4.96973915 11.9607653,2.90949566 C12.0434087,2.86553045 12.1305044,2.83631306 12.2212174,2.82351306 C12.5478957,2.77676523 12.8709566,2.93926958 13.0278957,3.22893914 C13.232974,3.61154784 13.0896696,4.08960002 12.7076174,4.29551306 C9.150887,6.20855655 6.25474785,9.1088696 4.33280002,12.6831305 C3.30100871,14.6022957 2.58309566,16.6530783 2.19853914,18.7770436 C2.13787827,19.1109566 1.87130436,19.3680696 1.53627827,19.4156523 Z" id="XMLID_122_"></path>
                        <path d="M37.3893567,7.73314786 C37.148661,7.76793047 36.9104697,7.69224351 36.7334958,7.52445221 C35.4020175,6.25446959 33.8955132,5.16480002 32.2587827,4.28382611 C28.3876175,2.20299131 24.0484175,1.4180174 19.709774,2.01405218 C19.5016349,2.04243479 19.2946088,1.98789566 19.127374,1.8610087 C18.9593044,1.73440001 18.8507827,1.54935653 18.8232349,1.34177392 C18.7645218,0.9138087 19.063374,0.516452176 19.4902262,0.455234785 C24.1664001,-0.186434783 28.8378436,0.65836522 33.0031306,2.89725219 C34.7642436,3.84306089 36.3837219,5.01648698 37.8198262,6.38441742 C37.9720349,6.52966959 38.0582958,6.72528699 38.0640455,6.93509568 C38.0683132,7.14490438 37.9920697,7.34497394 37.8470958,7.49690438 C37.7238262,7.62685221 37.5660523,7.70782612 37.3893567,7.73314786 Z" id="XMLID_120_"></path>
                        <circle id="XMLID_118_" cx="0.975026091" cy="21.373774" r="1"></circle>
                    </g>
                    <g id="XMLID_111_" transform="translate(4.452174, 4.452174)" fill="#71A9DB">
                        <g id="XMLID_115_">
                            <path d="M13.1737044,35.0272001 C13.0598957,35.0441741 12.9455305,35.0347132 12.8333914,35.0010436 L12.786087,34.9865741 C6.25335655,32.9652871 1.40299131,27.2854262 0.430191306,20.5133914 C0.0539826089,17.8982957 0.262956523,15.282087 1.04848696,12.7385044 C3.06977393,6.20549568 8.75102612,1.35457392 15.5233392,0.381773915 C18.1392696,0.00584347829 20.7554783,0.213704349 23.2987827,1.00062609 C24.4048697,1.3426087 25.4792349,1.79200001 26.492661,2.33766958 C26.8738784,2.5430261 27.0177392,3.02135653 26.8115479,3.40257393 C26.6932871,3.62212175 26.4754088,3.77377393 26.2299827,3.80855654 C26.0621914,3.83304349 25.8952349,3.80326958 25.7463653,3.72285219 C24.8228175,3.22615654 23.843061,2.81600001 22.832974,2.50379132 C20.5145044,1.78671305 18.1298088,1.59666088 15.7473392,1.93975653 C9.573287,2.82685219 4.39485219,7.24813916 2.55248697,13.2034783 C1.83568696,15.5227827 1.64591305,17.9066436 1.98789566,20.2899479 C2.87526958,26.4637219 7.29711307,31.6427132 13.2524522,33.4831306 C13.7062957,33.6214262 13.9405914,34.0619132 13.8145392,34.4773567 C13.7266088,34.767861 13.4745044,34.9840697 13.1737044,35.0272001 Z" id="XMLID_116_"></path>
                        </g>
                        <g id="XMLID_113_" transform="translate(17.808696, 30.886957)">
                            <path d="M2.8516174,4.70900872 C2.23526957,4.79749567 1.60779131,4.85481741 0.986156526,4.87819133 C0.756869568,4.88709567 0.535930437,4.79805219 0.378156523,4.63248698 C0.222886957,4.46886958 0.145530435,4.24570437 0.165565218,4.0214261 C0.19812174,3.65746089 0.476660872,3.36695654 0.841739134,3.31380871 C0.869008699,3.31019132 0.89794783,3.30796523 0.925495656,3.30685219 C1.49314783,3.28486958 2.06469566,3.2328348 2.62733914,3.15213914 C5.18761741,2.78372175 7.6446609,1.8034087 9.73273048,0.315269567 C9.8370783,0.241252175 9.95951309,0.192000001 10.0847305,0.173913044 C10.3677218,0.133286957 10.6487653,0.247930436 10.8210087,0.472208698 C10.9504,0.641669568 11.0077218,0.860382612 10.9757218,1.07019131 C10.9445566,1.28055653 10.8324174,1.46393044 10.6615653,1.58608696 C8.36674786,3.22476523 5.66539133,4.30413915 2.8516174,4.70900872 L2.8516174,4.70900872 Z" id="XMLID_114_"></path>
                        </g>
                        <circle id="XMLID_112_" cx="30.1965914" cy="30.261148" r="1"></circle>
                    </g>
                    <g id="XMLID_104_" transform="translate(8.904348, 8.904348)" fill="#1F3E7C">
                        <g id="XMLID_106_" transform="translate(0.000000, 1.113043)">
                            <path d="M15.4874435,25.673461 C9.54073048,26.5285566 3.71450436,23.2720697 1.31951305,17.7541566 C0.842295656,16.6550262 0.51450435,15.5013566 0.345878262,14.3254261 C-0.507547828,8.38817395 2.74031306,2.56584349 8.24431308,0.166956522 C8.30942612,0.138295653 8.37760004,0.119095653 8.44772178,0.1088 C8.79610439,0.0592695655 9.13892178,0.249600001 9.2802783,0.572660872 C9.36459134,0.765773916 9.36793047,0.979756526 9.29113047,1.1762087 C9.21460873,1.37126957 9.06629569,1.52542609 8.87346091,1.6100174 C4.01669567,3.7270261 1.1506087,8.8642783 1.9030261,14.1017044 C2.0530087,15.1382262 2.34156523,16.1572175 2.76257392,17.1277914 C4.87596524,21.9959653 10.0165566,24.8698436 15.2640001,24.1157566 C16.3013566,23.9666088 17.3195131,23.6769392 18.2898088,23.2556523 C18.3941566,23.2102958 18.4614957,23.1908175 18.5305044,23.1808001 C18.8808349,23.1307131 19.2236523,23.3224349 19.3650088,23.6474436 C19.448487,23.8402784 19.4518262,24.054261 19.3747479,24.2498784 C19.2968349,24.4452175 19.1488001,24.599374 18.955687,24.682574 C17.8187131,25.1762088 16.6636522,25.5045566 15.4874435,25.673461 Z" id="XMLID_110_"></path>
                        </g>
                        <path d="M11.2734609,1.86573914 C10.8254609,1.92973914 10.4094609,1.61808696 10.3451827,1.1698087 C10.2800696,0.722643481 10.592,0.304973914 11.04,0.240417392 C11.488,0.176695653 11.9051131,0.48890435 11.9696696,0.93634783 C12.0342261,1.38462609 11.7220174,1.80146088 11.2734609,1.86573914 Z" id="XMLID_105_"></path>
                    </g>
                </g>
                <path d="M125.885774,20.3255653 C124.841183,20.3255653 124.028105,19.4866088 124.028105,18.4678957 C124.028105,17.4489044 124.851479,16.5996522 125.89607,16.5996522 C126.940661,16.5996522 127.75374,17.4386088 127.75374,18.4576001 C127.75374,19.4763131 126.930366,20.3255653 125.885774,20.3255653 Z M125.89607,16.8055653 C124.954157,16.8055653 124.244035,17.5518609 124.244035,18.468174 C124.244035,19.3839305 124.949148,20.1199305 125.885496,20.1199305 C126.827409,20.1199305 127.537531,19.3736349 127.537531,18.4578783 C127.537809,17.541287 126.832974,16.8055653 125.89607,16.8055653 Z M126.354087,18.6891131 L126.837983,19.3992349 L126.328487,19.3992349 L125.906366,18.7611827 L125.561601,18.7611827 L125.561601,19.3992349 L125.124174,19.3992349 L125.124174,17.4180175 L126.004314,17.4180175 C126.477635,17.4180175 126.781218,17.6598262 126.781218,18.0716523 C126.781218,18.3955479 126.606192,18.5964523 126.354087,18.6891131 Z M125.988731,17.803687 L125.561601,17.803687 L125.561601,18.3852523 L125.999027,18.3852523 C126.220244,18.3852523 126.338783,18.2669914 126.338783,18.0972523 C126.338783,17.9016349 126.20494,17.803687 125.988731,17.803687 Z" id="Shape" fill="#0070B9"></path>
            </g>
        </g>
    </g>
</svg>